<?xml version="1.0" encoding="UTF-8" standalone="no"?>
<!DOCTYPE svg PUBLIC "-//W3C//DTD SVG 1.1//EN" "http://www.w3.org/Graphics/SVG/1.1/DTD/svg11.dtd">
<!-- Generated by Microsoft Visio, SVG Export gtool flow.svg Page-1 -->
<svg xmlns="http://www.w3.org/2000/svg" xmlns:xlink="http://www.w3.org/1999/xlink" xmlns:ev="http://www.w3.org/2001/xml-events"
		xmlns:v="http://schemas.microsoft.com/visio/2003/SVGExtensions/" width="34.0787in" height="8.26772in"
		viewBox="0 0 2453.67 595.276" xml:space="preserve" color-interpolation-filters="sRGB" class="st9">
	<v:documentProperties v:langID="1033" v:metric="true" v:viewMarkup="false">
		<v:userDefs>
			<v:ud v:nameU="msvNoAutoConnect" v:val="VT0(1):26"/>
		</v:userDefs>
	</v:documentProperties>

	<style type="text/css">
	<![CDATA[
		.st1 {fill:none}
		.st2 {stroke:none;stroke-linecap:round;stroke-linejoin:round;stroke-width:6}
		.st3 {stroke:#008cd8;stroke-linecap:round;stroke-linejoin:round;stroke-width:6}
		.st4 {fill:none;stroke:none;stroke-linecap:round;stroke-linejoin:round;stroke-width:6;visibility:hidden}
		.st5 {fill:#0074b3;stroke:none;stroke-linecap:butt;stroke-width:0.75}
		.st6 {fill:none;stroke:none;stroke-linecap:round;stroke-linejoin:round;stroke-width:1}
		.st7 {fill:#004b74;font-family:Franklin Gothic Demi;font-size:1.99999em}
		.st8 {font-size:1em}
		.st9 {fill:none;fill-rule:evenodd;font-size:12px;overflow:visible;stroke-linecap:square;stroke-miterlimit:3}
	]]>
	</style>

	<g v:mID="0" v:index="1" v:groupContext="foregroundPage">
		<v:userDefs>
			<v:ud v:nameU="msvThemeOrder" v:val="VT0(0):26"/>
		</v:userDefs>
		<title>Page-1</title>
		<v:pageProperties v:drawingScale="0.0393701" v:pageScale="0.0393701" v:drawingUnits="24" v:shadowOffsetX="8.50394"
				v:shadowOffsetY="-8.50394"/>
		<g id="group26-1" transform="translate(720.85,-151.654)" v:mID="26" v:groupContext="group">
			<v:userDefs>
				<v:ud v:nameU="visVersion" v:val="VT0(15):26"/>
			</v:userDefs>
			<title>2-D single</title>
			<g id="shape27-2" v:mID="27" v:groupContext="shape">
				<title>Sheet.27</title>
				<path d="M0 486.85 L1025.43 486.85 L1025.43 595.28 L1133.86 378.43 L1025.43 161.57 L1025.43 270 L0 270 L0 486.85 Z"
						class="st1"/>
				<path d="M0 486.85 L1025.43 486.85 L1025.43 595.28 L1133.86 378.43 L1025.43 161.57 L1025.43 270 L0 270" class="st2"/>
			</g>
			<g id="shape28-5" v:mID="28" v:groupContext="shape">
				<title>Sheet.28</title>
				<path d="M0 486.85 L1025.43 486.85 L1025.43 595.28 L1133.86 378.43 L1025.43 161.57 L1025.43 270 L0 270 L0 486.85"
						class="st3"/>
			</g>
			<g id="shape29-8" v:mID="29" v:groupContext="shape" transform="translate(-100.488,-114.425)">
				<title>Sheet.29</title>
				<rect x="0" y="390.425" width="12" height="204.85" class="st4"/>
			</g>
		</g>
		<g id="group10-10" transform="translate(735.024,-305.984)" v:mID="10" v:groupContext="group">
			<title>Sheet.10</title>
			<g id="shape2-11" v:mID="2" v:groupContext="shape" transform="translate(38.56,-62.5197)">
				<title>Document.2</title>
				<v:userDefs>
					<v:ud v:nameU="msvShapeCategories" v:prompt="" v:val="VT4(Icon)"/>
					<v:ud v:nameU="visVersion" v:prompt="" v:val="VT0(15):26"/>
				</v:userDefs>
				<path d="M14.4 575.43 L14.4 572.6 L60.48 572.6 L60.48 575.43 L14.4 575.43 ZM14.4 564.09 L14.4 561.26 L60.48 561.26
							 L60.48 564.09 L14.4 564.09 ZM14.4 552.76 L14.4 549.92 L60.48 549.92 L60.48 552.76 L14.4 552.76 ZM14.4
							 541.42 L14.4 538.58 L60.48 538.58 L60.48 541.42 L14.4 541.42 ZM14.4 530.08 L14.4 527.24 L43.31 527.24
							 L43.31 530.08 L14.4 530.08 ZM69.12 589.61 L69.12 527.24 L51.84 527.24 L51.84 510.24 L5.76 510.24 L5.76
							 589.61 L69.12 589.61 ZM68.4 524.41 L54.72 510.94 L54.72 524.41 L68.4 524.41 ZM56.88 504.57 L74.88 522.28
							 L74.88 595.28 L0 595.28 L0 504.57 L56.88 504.57 Z" class="st5"/>
			</g>
			<g id="shape9-13" v:mID="9" v:groupContext="shape">
				<title>Sheet.9</title>
				<desc>Read configuration file</desc>
				<v:textBlock v:margins="rect(4,4,4,4)" v:tabSpace="42.5197"/>
				<v:textRect cx="76" cy="585.276" width="152" height="20"/>
				<rect x="0" y="575.276" width="152" height="20" class="st6"/>
				<text x="48.72" y="563.68" class="st7" v:langID="1033"><v:paragraph v:horizAlign="1"/><v:tabList/>Read<v:newlineChar/><tspan
							x="5.62" dy="1.2em" class="st8">configuration<v:newlineChar/></tspan><tspan x="59.38" dy="1.2em"
							class="st8">file</tspan></text>			</g>
		</g>
		<g id="group11-18" transform="translate(1100.96,-305.984)" v:mID="11" v:groupContext="group">
			<title>Sheet.11</title>
			<g id="shape12-19" v:mID="12" v:groupContext="shape" transform="translate(38.56,-62.5197)">
				<title>Document.2</title>
				<v:userDefs>
					<v:ud v:nameU="msvShapeCategories" v:prompt="" v:val="VT4(Icon)"/>
					<v:ud v:nameU="visVersion" v:prompt="" v:val="VT0(15):26"/>
				</v:userDefs>
				<path d="M14.4 575.43 L14.4 572.6 L60.48 572.6 L60.48 575.43 L14.4 575.43 ZM14.4 564.09 L14.4 561.26 L60.48 561.26
							 L60.48 564.09 L14.4 564.09 ZM14.4 552.76 L14.4 549.92 L60.48 549.92 L60.48 552.76 L14.4 552.76 ZM14.4
							 541.42 L14.4 538.58 L60.48 538.58 L60.48 541.42 L14.4 541.42 ZM14.4 530.08 L14.4 527.24 L43.31 527.24
							 L43.31 530.08 L14.4 530.08 ZM69.12 589.61 L69.12 527.24 L51.84 527.24 L51.84 510.24 L5.76 510.24 L5.76
							 589.61 L69.12 589.61 ZM68.4 524.41 L54.72 510.94 L54.72 524.41 L68.4 524.41 ZM56.88 504.57 L74.88 522.28
							 L74.88 595.28 L0 595.28 L0 504.57 L56.88 504.57 Z" class="st5"/>
			</g>
			<g id="shape13-21" v:mID="13" v:groupContext="shape">
				<title>Sheet.13</title>
				<desc>Load data structure (/classes)</desc>
				<v:textBlock v:margins="rect(4,4,4,4)" v:tabSpace="42.5197"/>
				<v:textRect cx="76" cy="585.276" width="152" height="20"/>
				<rect x="0" y="575.276" width="152" height="20" class="st6"/>
				<text x="23.88" y="563.68" class="st7" v:langID="1033"><v:paragraph v:horizAlign="1"/><v:tabList/>Load data <tspan
							x="28" dy="1.2em" class="st8">structure<v:newlineChar/></tspan><tspan x="23.27" dy="1.2em" class="st8">(/classes)</tspan></text>			</g>
		</g>
		<g id="group14-26" transform="translate(1283.93,-305.984)" v:mID="14" v:groupContext="group">
			<title>Sheet.14</title>
			<g id="shape15-27" v:mID="15" v:groupContext="shape" transform="translate(38.56,-62.5197)">
				<title>Document.2</title>
				<v:userDefs>
					<v:ud v:nameU="msvShapeCategories" v:prompt="" v:val="VT4(Icon)"/>
					<v:ud v:nameU="visVersion" v:prompt="" v:val="VT0(15):26"/>
				</v:userDefs>
				<path d="M14.4 575.43 L14.4 572.6 L60.48 572.6 L60.48 575.43 L14.4 575.43 ZM14.4 564.09 L14.4 561.26 L60.48 561.26
							 L60.48 564.09 L14.4 564.09 ZM14.4 552.76 L14.4 549.92 L60.48 549.92 L60.48 552.76 L14.4 552.76 ZM14.4
							 541.42 L14.4 538.58 L60.48 538.58 L60.48 541.42 L14.4 541.42 ZM14.4 530.08 L14.4 527.24 L43.31 527.24
							 L43.31 530.08 L14.4 530.08 ZM69.12 589.61 L69.12 527.24 L51.84 527.24 L51.84 510.24 L5.76 510.24 L5.76
							 589.61 L69.12 589.61 ZM68.4 524.41 L54.72 510.94 L54.72 524.41 L68.4 524.41 ZM56.88 504.57 L74.88 522.28
							 L74.88 595.28 L0 595.28 L0 504.57 L56.88 504.57 Z" class="st5"/>
			</g>
			<g id="shape16-29" v:mID="16" v:groupContext="shape" transform="translate(-18.6142,0)">
				<title>Sheet.16</title>
				<desc>Load data aggregators (/aggregates)</desc>
				<v:textBlock v:margins="rect(4,4,4,4)" v:tabSpace="42.5197"/>
				<v:textRect cx="94.9606" cy="585.276" width="189.93" height="20"/>
				<rect x="0" y="575.276" width="189.921" height="20" class="st6"/>
				<text x="42.84" y="563.68" class="st7" v:langID="1033"><v:paragraph v:horizAlign="1"/><v:tabList/>Load data <tspan
							x="30.98" dy="1.2em" class="st8">aggregators<v:newlineChar/></tspan><tspan x="21.69" dy="1.2em"
							class="st8">(/aggregates)</tspan></text>			</g>
		</g>
		<g id="group17-34" transform="translate(1466.9,-305.984)" v:mID="17" v:groupContext="group">
			<title>Sheet.17</title>
			<g id="shape18-35" v:mID="18" v:groupContext="shape" transform="translate(38.56,-62.5197)">
				<title>Document.2</title>
				<v:userDefs>
					<v:ud v:nameU="msvShapeCategories" v:prompt="" v:val="VT4(Icon)"/>
					<v:ud v:nameU="visVersion" v:prompt="" v:val="VT0(15):26"/>
				</v:userDefs>
				<path d="M14.4 575.43 L14.4 572.6 L60.48 572.6 L60.48 575.43 L14.4 575.43 ZM14.4 564.09 L14.4 561.26 L60.48 561.26
							 L60.48 564.09 L14.4 564.09 ZM14.4 552.76 L14.4 549.92 L60.48 549.92 L60.48 552.76 L14.4 552.76 ZM14.4
							 541.42 L14.4 538.58 L60.48 538.58 L60.48 541.42 L14.4 541.42 ZM14.4 530.08 L14.4 527.24 L43.31 527.24
							 L43.31 530.08 L14.4 530.08 ZM69.12 589.61 L69.12 527.24 L51.84 527.24 L51.84 510.24 L5.76 510.24 L5.76
							 589.61 L69.12 589.61 ZM68.4 524.41 L54.72 510.94 L54.72 524.41 L68.4 524.41 ZM56.88 504.57 L74.88 522.28
							 L74.88 595.28 L0 595.28 L0 504.57 L56.88 504.57 Z" class="st5"/>
			</g>
			<g id="shape19-37" v:mID="19" v:groupContext="shape" transform="translate(-18.6142,0)">
				<title>Sheet.19</title>
				<desc>Load project data (/data)</desc>
				<v:textBlock v:margins="rect(4,4,4,4)" v:tabSpace="42.5197"/>
				<v:textRect cx="94.9606" cy="585.276" width="189.93" height="20"/>
				<rect x="0" y="575.276" width="189.921" height="20" class="st6"/>
				<text x="29.47" y="563.68" class="st7" v:langID="1033"><v:paragraph v:horizAlign="1"/><v:tabList/>Load project <tspan
							x="71.27" dy="1.2em" class="st8">data <v:newlineChar/></tspan><tspan x="57.81" dy="1.2em" class="st8">(/data)</tspan></text>			</g>
		</g>
		<g id="group20-42" transform="translate(917.992,-305.984)" v:mID="20" v:groupContext="group">
			<title>Sheet.20</title>
			<g id="shape21-43" v:mID="21" v:groupContext="shape" transform="translate(38.56,-62.5197)">
				<title>Document.2</title>
				<v:userDefs>
					<v:ud v:nameU="msvShapeCategories" v:prompt="" v:val="VT4(Icon)"/>
					<v:ud v:nameU="visVersion" v:prompt="" v:val="VT0(15):26"/>
				</v:userDefs>
				<path d="M14.4 575.43 L14.4 572.6 L60.48 572.6 L60.48 575.43 L14.4 575.43 ZM14.4 564.09 L14.4 561.26 L60.48 561.26
							 L60.48 564.09 L14.4 564.09 ZM14.4 552.76 L14.4 549.92 L60.48 549.92 L60.48 552.76 L14.4 552.76 ZM14.4
							 541.42 L14.4 538.58 L60.48 538.58 L60.48 541.42 L14.4 541.42 ZM14.4 530.08 L14.4 527.24 L43.31 527.24
							 L43.31 530.08 L14.4 530.08 ZM69.12 589.61 L69.12 527.24 L51.84 527.24 L51.84 510.24 L5.76 510.24 L5.76
							 589.61 L69.12 589.61 ZM68.4 524.41 L54.72 510.94 L54.72 524.41 L68.4 524.41 ZM56.88 504.57 L74.88 522.28
							 L74.88 595.28 L0 595.28 L0 504.57 L56.88 504.57 Z" class="st5"/>
			</g>
			<g id="shape22-45" v:mID="22" v:groupContext="shape">
				<title>Sheet.22</title>
				<desc>Load plugins (global and project)</desc>
				<v:textBlock v:margins="rect(4,4,4,4)" v:tabSpace="42.5197"/>
				<v:textRect cx="76" cy="585.276" width="152" height="20"/>
				<rect x="0" y="575.276" width="152" height="20" class="st6"/>
				<text x="9.33" y="563.68" class="st7" v:langID="1033"><v:paragraph v:horizAlign="1"/><v:tabList/>Load plugins <tspan
							x="17.47" dy="1.2em" class="st8">(global and </tspan><tspan x="35.42" dy="1.2em" class="st8">project)</tspan></text>			</g>
		</g>
		<g id="group24-50" transform="translate(1618.02,-320.157)" v:mID="24" v:groupContext="group">
			<title>Sheet.24</title>
			<g id="shape6-51" v:mID="6" v:groupContext="shape" transform="translate(57.5748,-55.1964)">
				<title>Configure</title>
				<v:userDefs>
					<v:ud v:nameU="msvShapeCategories" v:prompt="" v:val="VT4(Icon)"/>
					<v:ud v:nameU="visVersion" v:prompt="" v:val="VT0(15):26"/>
				</v:userDefs>
				<path d="M65.43 568.7 C64.05 568.12 59.63 566.25 59.63 566.25 L59.92 562.57 L60.15 559.49 L59.76 553.58 L62.67 551.9
							 C62.67 551.9 64.15 551.29 65.52 550.72 C64.53 548.31 64.12 547.31 63.13 544.89 C61.74 545.46 57.17 547.35
							 57.17 547.35 L54.9 544.52 C53.81 543.14 52.46 541.85 50.76 540.53 L48.08 538.45 L49.16 535.17 C49.16
							 535.17 49.8 533.62 50.4 532.15 C47.99 531.15 46.99 530.75 44.58 529.75 C43.95 531.29 42.04 535.95 42.04
							 535.95 L38.49 535.6 C36.68 535.42 34.81 535.46 32.93 535.71 L29.55 536.17 L27.97 533.07 C27.97 533.07
							 27.28 531.42 26.61 529.83 C24.21 530.84 23.21 531.26 20.81 532.28 C21.53 533.97 23.54 538.75 23.54 538.75
							 L20.8 541.03 C19.5 542.11 18.29 543.38 17.1 544.93 L15.04 547.62 L11.75 546.56 C11.75 546.56 9.96 545.84
							 8.2 545.13 C7.23 547.56 6.83 548.56 5.86 550.98 C7.65 551.7 12.42 553.62 12.42 553.62 C12.42 553.62
							 12.13 559.04 12.1 559.47 C12.13 559.86 12.2 561.07 12.21 561.09 C12.21 561.1 12.48 563.96 12.48 563.96
							 L10.77 565.52 C10.24 566.05 10.06 566.19 5.77 567.87 C6.72 570.31 7.11 571.31 8.06 573.75 C9.84 573.06
							 14.84 571.1 14.84 571.1 L17.42 574.64 C18.21 575.62 19.32 576.73 20.67 577.87 L23.2 580.01 L22.08 583.18
							 C22.08 583.18 21.31 584.96 20.55 586.73 C22.95 587.76 23.93 588.19 26.33 589.23 C27.04 587.59 29.11
							 582.79 29.11 582.79 L32.74 583.3 C34.45 583.54 36.29 583.58 38.21 583.41 L41.5 583.12 L42.98 586.17
							 C42.98 586.17 43.65 587.85 44.3 589.48 C46.72 588.51 47.72 588.11 50.14 587.13 C49.54 585.63 47.62 580.84
							 47.62 580.84 L51.24 578.22 C52.27 577.39 53.45 576.2 54.66 574.72 L56.77 572.15 L60.01 573.26 C60.01
							 573.26 61.53 573.9 62.99 574.51 C64 572.11 64.42 571.11 65.43 568.7 ZM64.34 563.14 C64.34 563.14 64.32
							 563.27 64.31 563.39 C64.92 563.65 71.27 566.33 71.27 566.33 L65.36 580.35 C65.36 580.35 58.87 577.61
							 58.26 577.36 C58.19 577.45 58.11 577.55 58.11 577.55 C56.7 579.27 55.31 580.67 53.85 581.84 C53.85 581.84
							 53.37 582.18 53.05 582.41 C53.31 583.06 55.93 589.61 55.93 589.61 L41.81 595.28 C41.81 595.28 39.08
							 588.44 38.84 587.83 C38.72 587.84 38.59 587.85 38.59 587.85 C36.33 588.05 34.14 588 32.11 587.71 C32.11
							 587.71 31.98 587.69 31.86 587.67 C31.59 588.3 28.66 595.09 28.66 595.09 L14.69 589.05 C14.69 589.05
							 17.72 582.05 17.98 581.44 C17.89 581.36 17.79 581.28 17.79 581.28 C16.21 579.94 14.91 578.63 13.82 577.26
							 C13.82 577.26 13.49 576.81 13.27 576.5 C12.63 576.75 5.53 579.52 5.53 579.52 L0 565.34 C0 565.34 7.61
							 562.37 7.62 562.37 C7.62 562.37 7.73 562.32 7.84 562.28 C7.81 561.91 7.76 561.39 7.76 561.39 L7.64 559.49
							 C7.64 559.49 7.76 557.12 7.79 556.56 C7.2 556.32 0.06 553.47 0.06 553.47 L5.71 539.33 C5.71 539.33 12.79
							 542.17 13.41 542.42 C13.49 542.32 13.57 542.22 13.57 542.22 C14.96 540.41 16.39 538.89 17.96 537.6 C17.96
							 537.6 18.06 537.52 18.15 537.44 C17.89 536.83 14.97 529.9 14.97 529.9 L28.99 523.99 C28.99 523.99 31.82
							 530.7 32.08 531.32 C32.2 531.31 32.33 531.29 32.33 531.29 C34.56 530.99 36.78 530.95 38.93 531.17 C38.93
							 531.17 39.05 531.18 39.17 531.19 C39.42 530.58 42.15 523.94 42.15 523.94 L56.22 529.72 C56.22 529.72
							 53.54 536.23 53.29 536.86 C53.38 536.93 53.49 537.01 53.49 537.01 C55.47 538.55 57.06 540.08 58.36 541.71
							 C58.36 541.71 58.46 541.83 58.56 541.95 C59.17 541.7 65.55 539.07 65.55 539.07 L71.34 553.15 C71.34
							 553.15 64.99 555.77 64.37 556.02 C64.38 556.14 64.4 556.27 64.4 556.27 C64.54 557.5 64.6 558.52 64.6
							 559.49 C64.6 560.58 64.52 561.74 64.34 563.14 ZM42.1 567.01 C46.23 563.7 46.9 557.67 43.6 553.54 C40.3
							 549.4 34.27 548.73 30.14 552.03 C26.01 555.34 25.34 561.37 28.64 565.5 C31.94 569.64 37.97 570.31 42.1
							 567.01 ZM37.67 545.56 C41.4 545.98 44.74 547.82 47.08 550.75 C51.91 556.8 50.93 565.65 44.88 570.49
							 C41.96 572.83 38.29 573.89 34.57 573.48 C30.84 573.06 27.5 571.22 25.16 568.29 C23.09 565.71 22.09 562.61
							 22.09 559.53 C22.09 555.41 23.89 551.32 27.35 548.55 C30.28 546.21 33.94 545.15 37.67 545.56 Z"
						class="st5"/>
			</g>
			<g id="shape23-53" v:mID="23" v:groupContext="shape">
				<title>Sheet.23</title>
				<desc>Generate output</desc>
				<v:textBlock v:margins="rect(4,4,4,4)" v:tabSpace="42.5197"/>
				<v:textRect cx="94.9606" cy="585.276" width="189.93" height="20"/>
				<rect x="0" y="575.276" width="189.921" height="20" class="st6"/>
				<text x="46.54" y="578.08" class="st7" v:langID="1033"><v:paragraph v:horizAlign="1"/><v:tabList/>Generate<v:newlineChar/><tspan
							x="60.63" dy="1.2em" class="st8">output</tspan></text>			</g>
		</g>
	</g>
</svg>
