<?xml version="1.0" encoding="UTF-8" standalone="no"?>
<!DOCTYPE svg PUBLIC "-//W3C//DTD SVG 1.1//EN" "http://www.w3.org/Graphics/SVG/1.1/DTD/svg11.dtd">
<!-- Generated by Microsoft Visio, SVG Export gtool folder structure.svg Page-1 -->
<svg xmlns="http://www.w3.org/2000/svg" xmlns:xlink="http://www.w3.org/1999/xlink" xmlns:ev="http://www.w3.org/2001/xml-events"
		xmlns:v="http://schemas.microsoft.com/visio/2003/SVGExtensions/" width="8.26772in" height="11.6929in"
		viewBox="0 0 595.276 841.89" xml:space="preserve" color-interpolation-filters="sRGB" class="st12">
	<v:documentProperties v:langID="1033" v:metric="true" v:viewMarkup="false">
		<v:userDefs>
			<v:ud v:nameU="msvNoAutoConnect" v:val="VT0(1):26"/>
		</v:userDefs>
	</v:documentProperties>

	<style type="text/css">
	<![CDATA[
		.st1 {fill:#ffffff;stroke:none;stroke-linecap:round;stroke-linejoin:round;stroke-width:0.75}
		.st2 {fill:#ffffff;stroke:none;stroke-linecap:butt;stroke-width:0.75}
		.st3 {fill:url(#grad10-10);stroke:none;stroke-linecap:butt;stroke-width:0.75}
		.st4 {fill:#ffffff;stroke:#a57a2c;stroke-linecap:butt;stroke-width:0.375}
		.st5 {fill:url(#grad0-20);stroke:none;stroke-linecap:butt;stroke-width:0.75}
		.st6 {fill:none;stroke:#000000;stroke-linecap:round;stroke-linejoin:round;stroke-width:0.75}
		.st7 {fill:none;stroke:none;stroke-linecap:round;stroke-linejoin:round;stroke-width:0.75}
		.st8 {fill:#000000;font-family:Calibri;font-size:3em}
		.st9 {fill:#ffffff;stroke:#0070c0;stroke-linecap:round;stroke-linejoin:round;stroke-width:6}
		.st10 {fill:#000000;font-family:Calibri;font-size:4.00001em;font-weight:bold}
		.st11 {fill:#595959;stroke:none;stroke-linecap:butt;stroke-width:0.75}
		.st12 {fill:none;fill-rule:evenodd;font-size:12px;overflow:visible;stroke-linecap:square;stroke-miterlimit:3}
	]]>
	</style>

	<defs id="Patterns_And_Gradients">
		<pattern id="grad10-10" x="0" y="0" width="1" height="1" patternContentUnits="objectBoundingBox">
			<path d="M 0.5 0.5 L 0 0 L 0 1 z" style="fill:url(#grad0-11)"/>
			<path d="M 0.5 0.5 L 1 0 L 1 1 z" style="fill:url(#grad0-12)"/>
			<path d="M 0.5 0.5 L 0 0 L 1 0 z" style="fill:url(#grad0-13)"/>
			<path d="M 0.5 0.5 L 0 1 L 1 1 z" style="fill:url(#grad0-14)"/>
		</pattern>
		<linearGradient id="grad0-11" x1="0" y1="0" x2="1" y2="0" gradientTransform="rotate(180 0.5 0.5)">
			<stop offset="0" stop-color="#fce586" stop-opacity="1"/>
			<stop offset="1" stop-color="#ceaa33" stop-opacity="1"/>
		</linearGradient>
		<linearGradient id="grad0-12" x1="0" y1="0" x2="1" y2="0" gradientTransform="rotate(360 0.5 0.5)">
			<stop offset="0" stop-color="#fce586" stop-opacity="1"/>
			<stop offset="1" stop-color="#ceaa33" stop-opacity="1"/>
		</linearGradient>
		<linearGradient id="grad0-13" x1="0" y1="0" x2="1" y2="0" gradientTransform="rotate(270 0.5 0.5)">
			<stop offset="0" stop-color="#fce586" stop-opacity="1"/>
			<stop offset="1" stop-color="#ceaa33" stop-opacity="1"/>
		</linearGradient>
		<linearGradient id="grad0-14" x1="0" y1="0" x2="1" y2="0" gradientTransform="rotate(90 0.5 0.5)">
			<stop offset="0" stop-color="#fce586" stop-opacity="1"/>
			<stop offset="1" stop-color="#ceaa33" stop-opacity="1"/>
		</linearGradient>
		<linearGradient id="grad0-20" x1="0" y1="0" x2="1" y2="0" gradientTransform="rotate(0 0.5 0.5)">
			<stop offset="0" stop-color="#f0ecc0" stop-opacity="1"/>
			<stop offset="1" stop-color="#d3b348" stop-opacity="1"/>
		</linearGradient>
	</defs>
	<g v:mID="0" v:index="1" v:groupContext="foregroundPage">
		<title>Page-1</title>
		<v:pageProperties v:drawingScale="0.0393701" v:pageScale="0.0393701" v:drawingUnits="24" v:shadowOffsetX="8.50394"
				v:shadowOffsetY="-8.50394"/>
		<g id="shape48-1" v:mID="48" v:groupContext="shape" transform="translate(36.8504,-348.661)">
			<title>Sheet.48</title>
			<rect x="0" y="453.543" width="544.252" height="388.346" class="st1"/>
		</g>
		<g id="group22-3" transform="translate(77.7879,-595.276)" v:mID="22" v:groupContext="group">
			<title>Sheet.22</title>
			<g id="group9-4" v:mID="9" v:groupContext="group">
				<v:userDefs>
					<v:ud v:nameU="visVersion" v:prompt="" v:val="VT0(15):26"/>
				</v:userDefs>
				<title>Folder - closed.9</title>
				<g id="shape10-5" v:mID="10" v:groupContext="shape" transform="translate(7.62157,-5.25583)">
					<title>Sheet.10</title>
					<path d="M55.59 804.26 A3.1208 3.1208 -180 0 0 52.49 801.45 L23.34 801.45 A44.3377 44.3377 -180 0 0 22.2 798.46
								 A3.92656 3.92656 -180 0 0 19.66 795.71 L4.39 795.71 A8.33442 8.33442 -180 0 0 0.65 800.93 A18.468
								 18.468 -180 0 0 0.01 804.58 L0.01 806.14 L0 806.14 L0 841.89 L55.61 841.89 L55.61 837.35 A4.11118
								 4.11118 -180 0 0 55.62 837.22 L55.59 804.26 Z" class="st2"/>
				</g>
				<g id="shape11-7" v:mID="11" v:groupContext="shape" transform="translate(7.6347,-6.93771)">
					<title>Sheet.11</title>
					<path d="M52.48 803.13 L23.32 803.13 A14.5083 14.5083 -180 0 0 22.27 800.2 A4.13833 4.13833 -180 0 0 19.65 797.39
								 L4.37 797.39 A8.33442 8.33442 -180 0 0 0.63 802.61 A63.204 63.204 -180 0 0 0 806.27 L0 810.7 L53.35
								 810.75 L53.35 841.89 A3.11622 3.11622 -180 0 0 55.61 838.9 L55.61 806.27 A3.13169 3.13169 -180 0
								 0 52.48 803.13 Z" class="st3"/>
				</g>
				<g id="shape12-15" v:mID="12" v:groupContext="shape" transform="translate(7.6212,-5.25546)">
					<title>Sheet.12</title>
					<path d="M0 807.22 L0 841.89 L55.61 841.89 L55.61 807.27 L0 807.22 Z" class="st4"/>
				</g>
				<g id="shape13-17" v:mID="13" v:groupContext="shape" transform="translate(7.77495,-5.72121)">
					<title>Sheet.13</title>
					<rect x="0" y="808.597" width="54.3585" height="33.2933" class="st5"/>
				</g>
				<g id="shape14-21" v:mID="14" v:groupContext="shape" transform="translate(7.6212,-5.25621)">
					<title>Sheet.14</title>
					<path d="M55.59 804.26 A3.1208 3.1208 -180 0 0 52.49 801.45 L23.34 801.45 A44.3377 44.3377 -180 0 0 22.2 798.46
								 A3.92656 3.92656 -180 0 0 19.66 795.71 L4.39 795.71 A8.33442 8.33442 -180 0 0 0.65 800.93 A18.468
								 18.468 -180 0 0 0.01 804.58 L0.01 806.14 L0 806.14 L0 841.89 L55.61 841.89 L55.61 837.35 A4.11118
								 4.11118 -180 0 0 55.62 837.22 L55.59 804.26 Z" class="st6"/>
				</g>
			</g>
			<g id="shape15-23" v:mID="15" v:groupContext="shape" transform="translate(72.8189,-16.2571)">
				<title>Sheet.15</title>
				<desc>Classes</desc>
				<v:textBlock v:margins="rect(4,4,4,4)" v:tabSpace="42.5197"/>
				<v:textRect cx="76" cy="831.89" width="152" height="20"/>
				<rect x="0" y="821.89" width="152" height="20" class="st7"/>
				<text x="4" y="842.69" class="st8" v:langID="1033"><v:paragraph/><v:tabList/>Classes</text>			</g>
		</g>
		<g id="group23-26" transform="translate(77.7879,-522.102)" v:mID="23" v:groupContext="group">
			<title>Sheet.23</title>
			<g id="group24-27" v:mID="24" v:groupContext="group">
				<v:userDefs>
					<v:ud v:nameU="visVersion" v:prompt="" v:val="VT0(15):26"/>
				</v:userDefs>
				<title>Folder - closed.9</title>
				<g id="shape25-28" v:mID="25" v:groupContext="shape" transform="translate(7.62157,-5.25583)">
					<title>Sheet.25</title>
					<path d="M55.59 804.26 A3.1208 3.1208 -180 0 0 52.49 801.45 L23.34 801.45 A44.3377 44.3377 -180 0 0 22.2 798.46
								 A3.92656 3.92656 -180 0 0 19.66 795.71 L4.39 795.71 A8.33442 8.33442 -180 0 0 0.65 800.93 A18.468
								 18.468 -180 0 0 0.01 804.58 L0.01 806.14 L0 806.14 L0 841.89 L55.61 841.89 L55.61 837.35 A4.11118
								 4.11118 -180 0 0 55.62 837.22 L55.59 804.26 Z" class="st2"/>
				</g>
				<g id="shape26-30" v:mID="26" v:groupContext="shape" transform="translate(7.6347,-6.93771)">
					<title>Sheet.26</title>
					<path d="M52.48 803.13 L23.32 803.13 A14.5083 14.5083 -180 0 0 22.27 800.2 A4.13833 4.13833 -180 0 0 19.65 797.39
								 L4.37 797.39 A8.33442 8.33442 -180 0 0 0.63 802.61 A63.204 63.204 -180 0 0 0 806.27 L0 810.7 L53.35
								 810.75 L53.35 841.89 A3.11622 3.11622 -180 0 0 55.61 838.9 L55.61 806.27 A3.13169 3.13169 -180 0
								 0 52.48 803.13 Z" class="st3"/>
				</g>
				<g id="shape27-33" v:mID="27" v:groupContext="shape" transform="translate(7.6212,-5.25546)">
					<title>Sheet.27</title>
					<path d="M0 807.22 L0 841.89 L55.61 841.89 L55.61 807.27 L0 807.22 Z" class="st4"/>
				</g>
				<g id="shape28-35" v:mID="28" v:groupContext="shape" transform="translate(7.77495,-5.72121)">
					<title>Sheet.28</title>
					<rect x="0" y="808.597" width="54.3585" height="33.2933" class="st5"/>
				</g>
				<g id="shape29-38" v:mID="29" v:groupContext="shape" transform="translate(7.6212,-5.25621)">
					<title>Sheet.29</title>
					<path d="M55.59 804.26 A3.1208 3.1208 -180 0 0 52.49 801.45 L23.34 801.45 A44.3377 44.3377 -180 0 0 22.2 798.46
								 A3.92656 3.92656 -180 0 0 19.66 795.71 L4.39 795.71 A8.33442 8.33442 -180 0 0 0.65 800.93 A18.468
								 18.468 -180 0 0 0.01 804.58 L0.01 806.14 L0 806.14 L0 841.89 L55.61 841.89 L55.61 837.35 A4.11118
								 4.11118 -180 0 0 55.62 837.22 L55.59 804.26 Z" class="st6"/>
				</g>
			</g>
			<g id="shape30-40" v:mID="30" v:groupContext="shape" transform="translate(72.8189,-16.2571)">
				<title>Sheet.30</title>
				<desc>Plugins</desc>
				<v:textBlock v:margins="rect(4,4,4,4)" v:tabSpace="42.5197"/>
				<v:textRect cx="76" cy="831.89" width="152" height="20"/>
				<rect x="0" y="821.89" width="152" height="20" class="st7"/>
				<text x="4" y="842.69" class="st8" v:langID="1033"><v:paragraph/><v:tabList/>Plugins</text>			</g>
		</g>
		<g id="group31-43" transform="translate(77.7879,-448.929)" v:mID="31" v:groupContext="group">
			<title>Sheet.31</title>
			<g id="group32-44" v:mID="32" v:groupContext="group">
				<v:userDefs>
					<v:ud v:nameU="visVersion" v:prompt="" v:val="VT0(15):26"/>
				</v:userDefs>
				<title>Folder - closed.9</title>
				<g id="shape33-45" v:mID="33" v:groupContext="shape" transform="translate(7.62157,-5.25583)">
					<title>Sheet.33</title>
					<path d="M55.59 804.26 A3.1208 3.1208 -180 0 0 52.49 801.45 L23.34 801.45 A44.3377 44.3377 -180 0 0 22.2 798.46
								 A3.92656 3.92656 -180 0 0 19.66 795.71 L4.39 795.71 A8.33442 8.33442 -180 0 0 0.65 800.93 A18.468
								 18.468 -180 0 0 0.01 804.58 L0.01 806.14 L0 806.14 L0 841.89 L55.61 841.89 L55.61 837.35 A4.11118
								 4.11118 -180 0 0 55.62 837.22 L55.59 804.26 Z" class="st2"/>
				</g>
				<g id="shape34-47" v:mID="34" v:groupContext="shape" transform="translate(7.6347,-6.93771)">
					<title>Sheet.34</title>
					<path d="M52.48 803.13 L23.32 803.13 A14.5083 14.5083 -180 0 0 22.27 800.2 A4.13833 4.13833 -180 0 0 19.65 797.39
								 L4.37 797.39 A8.33442 8.33442 -180 0 0 0.63 802.61 A63.204 63.204 -180 0 0 0 806.27 L0 810.7 L53.35
								 810.75 L53.35 841.89 A3.11622 3.11622 -180 0 0 55.61 838.9 L55.61 806.27 A3.13169 3.13169 -180 0
								 0 52.48 803.13 Z" class="st3"/>
				</g>
				<g id="shape35-50" v:mID="35" v:groupContext="shape" transform="translate(7.6212,-5.25546)">
					<title>Sheet.35</title>
					<path d="M0 807.22 L0 841.89 L55.61 841.89 L55.61 807.27 L0 807.22 Z" class="st4"/>
				</g>
				<g id="shape36-52" v:mID="36" v:groupContext="shape" transform="translate(7.77495,-5.72121)">
					<title>Sheet.36</title>
					<rect x="0" y="808.597" width="54.3585" height="33.2933" class="st5"/>
				</g>
				<g id="shape37-55" v:mID="37" v:groupContext="shape" transform="translate(7.6212,-5.25621)">
					<title>Sheet.37</title>
					<path d="M55.59 804.26 A3.1208 3.1208 -180 0 0 52.49 801.45 L23.34 801.45 A44.3377 44.3377 -180 0 0 22.2 798.46
								 A3.92656 3.92656 -180 0 0 19.66 795.71 L4.39 795.71 A8.33442 8.33442 -180 0 0 0.65 800.93 A18.468
								 18.468 -180 0 0 0.01 804.58 L0.01 806.14 L0 806.14 L0 841.89 L55.61 841.89 L55.61 837.35 A4.11118
								 4.11118 -180 0 0 55.62 837.22 L55.59 804.26 Z" class="st6"/>
				</g>
			</g>
			<g id="shape38-57" v:mID="38" v:groupContext="shape" transform="translate(72.8189,-16.2571)">
				<title>Sheet.38</title>
				<desc>Aggregates</desc>
				<v:textBlock v:margins="rect(4,4,4,4)" v:tabSpace="42.5197"/>
				<v:textRect cx="94.7753" cy="831.89" width="189.56" height="20"/>
				<rect x="0" y="821.89" width="189.551" height="20" class="st7"/>
				<text x="4" y="842.69" class="st8" v:langID="1033"><v:paragraph/><v:tabList/>Aggregates</text>			</g>
		</g>
		<g id="group39-60" transform="translate(77.7879,-375.755)" v:mID="39" v:groupContext="group">
			<title>Sheet.39</title>
			<g id="group40-61" v:mID="40" v:groupContext="group">
				<v:userDefs>
					<v:ud v:nameU="visVersion" v:prompt="" v:val="VT0(15):26"/>
				</v:userDefs>
				<title>Folder - closed.9</title>
				<g id="shape41-62" v:mID="41" v:groupContext="shape" transform="translate(7.62157,-5.25583)">
					<title>Sheet.41</title>
					<path d="M55.59 804.26 A3.1208 3.1208 -180 0 0 52.49 801.45 L23.34 801.45 A44.3377 44.3377 -180 0 0 22.2 798.46
								 A3.92656 3.92656 -180 0 0 19.66 795.71 L4.39 795.71 A8.33442 8.33442 -180 0 0 0.65 800.93 A18.468
								 18.468 -180 0 0 0.01 804.58 L0.01 806.14 L0 806.14 L0 841.89 L55.61 841.89 L55.61 837.35 A4.11118
								 4.11118 -180 0 0 55.62 837.22 L55.59 804.26 Z" class="st2"/>
				</g>
				<g id="shape42-64" v:mID="42" v:groupContext="shape" transform="translate(7.6347,-6.93771)">
					<title>Sheet.42</title>
					<path d="M52.48 803.13 L23.32 803.13 A14.5083 14.5083 -180 0 0 22.27 800.2 A4.13833 4.13833 -180 0 0 19.65 797.39
								 L4.37 797.39 A8.33442 8.33442 -180 0 0 0.63 802.61 A63.204 63.204 -180 0 0 0 806.27 L0 810.7 L53.35
								 810.75 L53.35 841.89 A3.11622 3.11622 -180 0 0 55.61 838.9 L55.61 806.27 A3.13169 3.13169 -180 0
								 0 52.48 803.13 Z" class="st3"/>
				</g>
				<g id="shape43-67" v:mID="43" v:groupContext="shape" transform="translate(7.6212,-5.25546)">
					<title>Sheet.43</title>
					<path d="M0 807.22 L0 841.89 L55.61 841.89 L55.61 807.27 L0 807.22 Z" class="st4"/>
				</g>
				<g id="shape44-69" v:mID="44" v:groupContext="shape" transform="translate(7.77495,-5.72121)">
					<title>Sheet.44</title>
					<rect x="0" y="808.597" width="54.3585" height="33.2933" class="st5"/>
				</g>
				<g id="shape45-72" v:mID="45" v:groupContext="shape" transform="translate(7.6212,-5.25621)">
					<title>Sheet.45</title>
					<path d="M55.59 804.26 A3.1208 3.1208 -180 0 0 52.49 801.45 L23.34 801.45 A44.3377 44.3377 -180 0 0 22.2 798.46
								 A3.92656 3.92656 -180 0 0 19.66 795.71 L4.39 795.71 A8.33442 8.33442 -180 0 0 0.65 800.93 A18.468
								 18.468 -180 0 0 0.01 804.58 L0.01 806.14 L0 806.14 L0 841.89 L55.61 841.89 L55.61 837.35 A4.11118
								 4.11118 -180 0 0 55.62 837.22 L55.59 804.26 Z" class="st6"/>
				</g>
			</g>
			<g id="shape46-74" v:mID="46" v:groupContext="shape" transform="translate(72.8189,-16.2571)">
				<title>Sheet.46</title>
				<desc>Data</desc>
				<v:textBlock v:margins="rect(4,4,4,4)" v:tabSpace="42.5197"/>
				<v:textRect cx="94.7753" cy="831.89" width="189.56" height="20"/>
				<rect x="0" y="821.89" width="189.551" height="20" class="st7"/>
				<text x="4" y="842.69" class="st8" v:langID="1033"><v:paragraph/><v:tabList/>Data</text>			</g>
		</g>
		<g id="group47-77" transform="translate(49.6063,-668.449)" v:mID="47" v:groupContext="group">
			<title>Sheet.47</title>
			<g id="group1-78" v:mID="1" v:groupContext="group">
				<v:userDefs>
					<v:ud v:nameU="visVersion" v:prompt="" v:val="VT0(15):26"/>
				</v:userDefs>
				<title>Folder - closed</title>
				<g id="shape2-79" v:mID="2" v:groupContext="shape" transform="translate(7.62157,-5.25583)">
					<title>Sheet.2</title>
					<path d="M55.59 804.26 A3.1208 3.1208 -180 0 0 52.49 801.45 L23.34 801.45 A44.3377 44.3377 -180 0 0 22.2 798.46
								 A3.92656 3.92656 -180 0 0 19.66 795.71 L4.39 795.71 A8.33442 8.33442 -180 0 0 0.65 800.93 A18.468
								 18.468 -180 0 0 0.01 804.58 L0.01 806.14 L0 806.14 L0 841.89 L55.61 841.89 L55.61 837.35 A4.11118
								 4.11118 -180 0 0 55.62 837.22 L55.59 804.26 Z" class="st2"/>
				</g>
				<g id="shape3-81" v:mID="3" v:groupContext="shape" transform="translate(7.6347,-6.93771)">
					<title>Sheet.3</title>
					<path d="M52.48 803.13 L23.32 803.13 A14.5083 14.5083 -180 0 0 22.27 800.2 A4.13833 4.13833 -180 0 0 19.65 797.39
								 L4.37 797.39 A8.33442 8.33442 -180 0 0 0.63 802.61 A63.204 63.204 -180 0 0 0 806.27 L0 810.7 L53.35
								 810.75 L53.35 841.89 A3.11622 3.11622 -180 0 0 55.61 838.9 L55.61 806.27 A3.13169 3.13169 -180 0
								 0 52.48 803.13 Z" class="st3"/>
				</g>
				<g id="shape4-84" v:mID="4" v:groupContext="shape" transform="translate(7.6212,-5.25546)">
					<title>Sheet.4</title>
					<path d="M0 807.22 L0 841.89 L55.61 841.89 L55.61 807.27 L0 807.22 Z" class="st4"/>
				</g>
				<g id="shape5-86" v:mID="5" v:groupContext="shape" transform="translate(7.77495,-5.72121)">
					<title>Sheet.5</title>
					<rect x="0" y="808.597" width="54.3585" height="33.2933" class="st5"/>
				</g>
				<g id="shape6-89" v:mID="6" v:groupContext="shape" transform="translate(7.6212,-5.25621)">
					<title>Sheet.6</title>
					<path d="M55.59 804.26 A3.1208 3.1208 -180 0 0 52.49 801.45 L23.34 801.45 A44.3377 44.3377 -180 0 0 22.2 798.46
								 A3.92656 3.92656 -180 0 0 19.66 795.71 L4.39 795.71 A8.33442 8.33442 -180 0 0 0.65 800.93 A18.468
								 18.468 -180 0 0 0.01 804.58 L0.01 806.14 L0 806.14 L0 841.89 L55.61 841.89 L55.61 837.35 A4.11118
								 4.11118 -180 0 0 55.62 837.22 L55.59 804.26 Z" class="st6"/>
				</g>
			</g>
			<g id="shape7-91" v:mID="7" v:groupContext="shape" transform="translate(72.8189,-16.2571)">
				<title>Sheet.7</title>
				<desc>Project</desc>
				<v:textBlock v:margins="rect(4,4,4,4)" v:tabSpace="42.5197"/>
				<v:textRect cx="76" cy="831.89" width="152" height="20"/>
				<rect x="0" y="821.89" width="152" height="20" class="st7"/>
				<text x="4" y="842.69" class="st8" v:langID="1033"><v:paragraph/><v:tabList/>Project</text>			</g>
		</g>
		<g id="group51-94" transform="translate(368.504,-663.866)" v:mID="51" v:groupContext="group">
			<title>Sheet.51</title>
			<g id="shape49-95" v:mID="49" v:groupContext="shape" transform="translate(84.1575,-1.13687E-13)">
				<title>Sheet.49</title>
				<desc>1</desc>
				<v:textBlock v:margins="rect(4,4,4,4)" v:tabSpace="42.5197"/>
				<v:textRect cx="28.6602" cy="813.23" width="57.33" height="57.3205"/>
				<ellipse cx="28.6602" cy="813.23" rx="28.6602" ry="28.6602" class="st9"/>
				<text x="16.5" y="827.63" class="st10" v:langID="1033"><v:paragraph v:horizAlign="1"/><v:tabList/>1</text>			</g>
			<g id="shape50-98" v:mID="50" v:groupContext="shape" transform="translate(2.79776E-14,-2.1886)">
				<title>Back</title>
				<v:userDefs>
					<v:ud v:nameU="msvShapeCategories" v:prompt="" v:val="VT4(Icon)"/>
					<v:ud v:nameU="visVersion" v:prompt="" v:val="VT0(15):26"/>
				</v:userDefs>
				<path d="M57.32 802.18 L57.32 828.65 L31.27 828.65 L31.27 841.89 L0 815.46 L31.27 788.95 L31.27 802.18 L57.32 802.18
							 Z" class="st11"/>
			</g>
		</g>
		<g id="group52-100" transform="translate(368.504,-594.962)" v:mID="52" v:groupContext="group">
			<title>Sheet.52</title>
			<g id="shape53-101" v:mID="53" v:groupContext="shape" transform="translate(84.1575,-1.13687E-13)">
				<title>Sheet.53</title>
				<desc>2</desc>
				<v:textBlock v:margins="rect(4,4,4,4)" v:tabSpace="42.5197"/>
				<v:textRect cx="28.6602" cy="813.23" width="57.33" height="57.3205"/>
				<ellipse cx="28.6602" cy="813.23" rx="28.6602" ry="28.6602" class="st9"/>
				<text x="16.5" y="827.63" class="st10" v:langID="1033"><v:paragraph v:horizAlign="1"/><v:tabList/>2</text>			</g>
			<g id="shape54-104" v:mID="54" v:groupContext="shape" transform="translate(2.79776E-14,-2.1886)">
				<title>Back</title>
				<v:userDefs>
					<v:ud v:nameU="msvShapeCategories" v:prompt="" v:val="VT4(Icon)"/>
					<v:ud v:nameU="visVersion" v:prompt="" v:val="VT0(15):26"/>
				</v:userDefs>
				<path d="M57.32 802.18 L57.32 828.65 L31.27 828.65 L31.27 841.89 L0 815.46 L31.27 788.95 L31.27 802.18 L57.32 802.18
							 Z" class="st11"/>
			</g>
		</g>
		<g id="group55-106" transform="translate(368.504,-521.788)" v:mID="55" v:groupContext="group">
			<title>Sheet.55</title>
			<g id="shape56-107" v:mID="56" v:groupContext="shape" transform="translate(84.1575,-1.13687E-13)">
				<title>Sheet.56</title>
				<desc>3</desc>
				<v:textBlock v:margins="rect(4,4,4,4)" v:tabSpace="42.5197"/>
				<v:textRect cx="28.6602" cy="813.23" width="57.33" height="57.3205"/>
				<ellipse cx="28.6602" cy="813.23" rx="28.6602" ry="28.6602" class="st9"/>
				<text x="16.5" y="827.63" class="st10" v:langID="1033"><v:paragraph v:horizAlign="1"/><v:tabList/>3</text>			</g>
			<g id="shape57-110" v:mID="57" v:groupContext="shape" transform="translate(2.79776E-14,-2.1886)">
				<title>Back</title>
				<v:userDefs>
					<v:ud v:nameU="msvShapeCategories" v:prompt="" v:val="VT4(Icon)"/>
					<v:ud v:nameU="visVersion" v:prompt="" v:val="VT0(15):26"/>
				</v:userDefs>
				<path d="M57.32 802.18 L57.32 828.65 L31.27 828.65 L31.27 841.89 L0 815.46 L31.27 788.95 L31.27 802.18 L57.32 802.18
							 Z" class="st11"/>
			</g>
		</g>
		<g id="group58-112" transform="translate(368.758,-448.301)" v:mID="58" v:groupContext="group">
			<title>Sheet.58</title>
			<g id="shape59-113" v:mID="59" v:groupContext="shape" transform="translate(84.1575,-1.13687E-13)">
				<title>Sheet.59</title>
				<desc>4</desc>
				<v:textBlock v:margins="rect(4,4,4,4)" v:tabSpace="42.5197"/>
				<v:textRect cx="28.6602" cy="813.23" width="57.33" height="57.3205"/>
				<ellipse cx="28.6602" cy="813.23" rx="28.6602" ry="28.6602" class="st9"/>
				<text x="16.5" y="827.63" class="st10" v:langID="1033"><v:paragraph v:horizAlign="1"/><v:tabList/>4</text>			</g>
			<g id="shape60-116" v:mID="60" v:groupContext="shape" transform="translate(2.79776E-14,-2.1886)">
				<title>Back</title>
				<v:userDefs>
					<v:ud v:nameU="msvShapeCategories" v:prompt="" v:val="VT4(Icon)"/>
					<v:ud v:nameU="visVersion" v:prompt="" v:val="VT0(15):26"/>
				</v:userDefs>
				<path d="M57.32 802.18 L57.32 828.65 L31.27 828.65 L31.27 841.89 L0 815.46 L31.27 788.95 L31.27 802.18 L57.32 802.18
							 Z" class="st11"/>
			</g>
		</g>
		<g id="group61-118" transform="translate(368.504,-375.128)" v:mID="61" v:groupContext="group">
			<title>Sheet.61</title>
			<g id="shape62-119" v:mID="62" v:groupContext="shape" transform="translate(84.1575,-1.13687E-13)">
				<title>Sheet.62</title>
				<desc>5</desc>
				<v:textBlock v:margins="rect(4,4,4,4)" v:tabSpace="42.5197"/>
				<v:textRect cx="28.6602" cy="813.23" width="57.33" height="57.3205"/>
				<ellipse cx="28.6602" cy="813.23" rx="28.6602" ry="28.6602" class="st9"/>
				<text x="16.5" y="827.63" class="st10" v:langID="1033"><v:paragraph v:horizAlign="1"/><v:tabList/>5</text>			</g>
			<g id="shape63-122" v:mID="63" v:groupContext="shape" transform="translate(2.79776E-14,-2.1886)">
				<title>Back</title>
				<v:userDefs>
					<v:ud v:nameU="msvShapeCategories" v:prompt="" v:val="VT4(Icon)"/>
					<v:ud v:nameU="visVersion" v:prompt="" v:val="VT0(15):26"/>
				</v:userDefs>
				<path d="M57.32 802.18 L57.32 828.65 L31.27 828.65 L31.27 841.89 L0 815.46 L31.27 788.95 L31.27 802.18 L57.32 802.18
							 Z" class="st11"/>
			</g>
		</g>
	</g>
</svg>
